# Blender v2.79 (sub 0) OBJ File: ''
# www.blender.org
mtllib hrp2_LF_constraints_in_RF_quasi_flat_REDUCED.mtl
o foo
v -0.296233 0.274978 0.141514
v -0.287472 0.142944 0.137646
v 0.293593 0.260494 0.157628
v -0.281891 0.456295 0.155254
v -0.292398 0.499051 -0.153242
v -0.285717 0.143971 -0.132349
v 0.266554 0.451861 -0.155800
v 0.295180 0.231727 -0.143239
v 0.284648 0.133310 0.041392
v 0.282648 0.453987 0.147154
v 0.293738 0.503263 -0.050931
v -0.185346 0.489137 0.146593
vn -0.9978 -0.0660 -0.0067
vn 0.0149 0.2138 0.9768
vn -0.3041 -0.0480 0.9514
vn 0.9486 0.1064 -0.2980
vn -0.3075 0.9411 0.1409
vn -0.0089 -0.0142 0.9999
vn -0.9999 0.0143 -0.0022
vn 0.0729 0.8879 -0.4541
vn 0.0180 0.9932 0.1146
vn 0.9994 0.0220 0.0263
vn 0.0464 -0.9761 -0.2123
vn 0.1114 -0.6747 0.7297
vn 0.9965 -0.0821 0.0131
vn -0.0097 -0.0587 -0.9982
usemtl None
s off
f 1//1 6//1 2//1
f 4//2 10//2 12//2
f 1//3 2//3 4//3
f 8//4 7//4 11//4
f 4//5 12//5 5//5
f 4//6 2//6 3//6 10//6
f 6//7 1//7 4//7 5//7
f 7//8 5//8 11//8
f 12//9 10//9 11//9 5//9
f 10//10 3//10 8//10 11//10
f 6//11 8//11 9//11 2//11
f 2//12 9//12 3//12
f 9//13 8//13 3//13
f 6//14 5//14 7//14 8//14
