# Blender v2.82 (sub 7) OBJ File: ''
# www.blender.org
o anymal_RH_ADAPTER_TO_FOOT_constraints_in_LHleg_reduced_anymal_RH_ADAPTER_TO_FOOT_constraints_in_LHleg
v -0.249854 -0.604474 0.328196
v -0.466105 -0.532628 -0.272948
v 0.397610 -0.508529 -0.323974
v 0.407293 -0.321528 0.185424
v 0.036298 -1.074733 -0.008333
v -0.440198 -0.118433 0.111886
v -0.460456 -0.771438 0.218520
v -0.421488 -0.932887 -0.032550
v -0.612607 -0.482346 -0.091868
v 0.598805 -0.176520 -0.022878
v 0.521306 -0.725700 0.196721
v -0.289267 -0.130054 -0.085835
v 0.434543 -0.892481 -0.170678
v 0.350220 -0.102137 -0.129408
vn 0.9708 -0.1935 -0.1414
vn -0.7654 -0.3919 -0.5104
vn 0.0258 -0.5714 0.8203
vn -0.6028 0.5630 -0.5654
vn 0.1256 0.7564 0.6420
vn 0.0200 0.4130 0.9105
vn 0.1795 0.0780 0.9807
vn -0.0715 0.4349 -0.8976
vn -0.5483 0.1513 0.8225
vn 0.4611 0.4264 -0.7782
vn 0.4880 -0.8324 0.2626
vn -0.2818 -0.8263 0.4876
vn -0.0500 0.9941 -0.0966
vn -0.8476 0.1110 0.5189
vn 0.0530 -0.5596 0.8271
vn -0.0443 -0.3741 -0.9263
vn -0.1133 -0.5112 -0.8519
vn 0.6464 0.2029 0.7355
vn 0.8760 -0.1038 -0.4710
vn 0.1025 0.9119 0.3975
vn -0.9207 -0.3774 0.0998
vn -0.1120 -0.5208 -0.8463
s off
f 13//1 10//1 11//1
f 8//2 9//2 2//2
f 7//3 5//3 1//3
f 6//4 12//4 2//4 9//4
f 4//5 10//5 6//5
f 1//6 4//6 6//6
f 11//7 4//7 1//7
f 3//8 2//8 12//8 14//8
f 7//9 1//9 6//9
f 14//10 10//10 3//10
f 11//11 5//11 13//11
f 5//12 7//12 8//12
f 12//13 6//13 14//13
f 9//14 7//14 6//14
f 5//15 11//15 1//15
f 13//16 2//16 3//16
f 13//17 5//17 8//17
f 4//18 11//18 10//18
f 10//19 13//19 3//19
f 6//20 10//20 14//20
f 7//21 9//21 8//21
f 8//22 2//22 13//22
