# Blender v2.82 (sub 7) OBJ File: ''
# www.blender.org
o anymal_LF_ADAPTER_TO_FOOT_constraints_in_LHleg_reduced_anymal_LF_ADAPTER_TO_FOOT_constraints_in_LHleg
v 0.965623 0.423488 -0.087544
v 0.565522 0.590180 0.166095
v 1.127390 0.275440 0.117007
v 0.875328 -0.185909 -0.309031
v 0.966168 -0.413557 0.078864
v 0.440893 -0.571285 -0.198095
v 0.871305 0.429002 0.355134
v 0.245946 0.424041 -0.022779
v 0.096087 -0.337485 -0.253642
v 1.021014 -0.440922 -0.279406
v 0.161132 0.154343 0.190441
v 0.241317 -0.531443 -0.051573
v 0.125639 0.412796 0.114406
vn -0.0617 -0.3159 -0.9468
vn -0.8832 -0.2445 0.4001
vn -0.7237 0.3267 -0.6079
vn 0.5874 0.8010 0.1152
vn -0.1027 -0.3300 0.9384
vn 0.0846 -0.9263 0.3671
vn -0.0432 -0.1396 -0.9893
vn -0.0540 0.7933 -0.6065
vn -0.1083 0.3286 -0.9383
vn -0.9732 -0.0692 0.2192
vn -0.3035 0.2303 0.9246
vn 0.2325 -0.9664 0.1094
vn 0.4259 0.9013 0.0795
vn 0.6075 -0.1849 0.7725
vn -0.4628 -0.7818 -0.4178
vn 0.5417 0.2151 -0.8126
vn -0.2826 0.4546 0.8447
vn 0.8293 0.1712 -0.5319
vn 0.9584 -0.2334 0.1645
vn -0.3416 0.9126 -0.2248
s off
f 10//1 6//1 9//1
f 11//2 9//2 12//2
f 13//3 8//3 9//3
f 3//4 1//4 7//4
f 5//5 7//5 11//5 12//5
f 6//6 5//6 12//6
f 4//7 10//7 9//7
f 2//8 1//8 8//8
f 8//9 1//9 4//9 9//9
f 11//10 13//10 9//10
f 7//11 13//11 11//11
f 10//12 5//12 6//12
f 7//13 1//13 2//13
f 5//14 3//14 7//14
f 6//15 12//15 9//15
f 1//16 10//16 4//16
f 7//17 2//17 13//17
f 1//18 3//18 10//18
f 10//19 3//19 5//19
f 8//20 13//20 2//20
