# Blender v2.82 (sub 7) OBJ File: ''
# www.blender.org
o anymal_COM_constraints_in_LHleg_effector_frame_quasi_static.001
v -0.054874 0.100247 0.389137
v -0.400228 0.079547 0.302220
v 0.087799 -0.189625 0.514526
v -0.027934 -0.540928 0.348958
v -0.169779 -0.159468 0.557656
v -0.140080 -0.310725 0.557420
v -0.499523 -0.404849 0.305046
v -0.517937 -0.053547 0.330596
v 0.034088 -0.386705 0.503386
v -0.251636 -0.006534 0.473648
v 0.026624 -0.045964 0.483921
v -0.517395 -0.344335 0.382635
v -0.475166 -0.161480 0.438948
v -0.375959 -0.248443 0.512439
v -0.388765 -0.526001 0.304080
v -0.227169 -0.449345 0.481984
vn -0.0942 -0.8803 0.4649
vn -0.1974 -0.0403 0.9795
vn -0.8996 0.0753 0.4301
vn -0.4288 -0.4374 0.7904
vn -0.1909 0.8009 0.5676
vn 0.9046 0.3270 -0.2735
vn 0.1904 0.2814 0.9405
vn 0.7380 0.0730 -0.6708
vn -0.0123 -0.0033 -0.9999
vn 0.0492 0.5625 0.8253
vn -0.4730 0.5238 0.7085
vn 0.2455 -0.1213 0.9618
vn -0.6410 -0.0868 0.7626
vn -0.6936 -0.6368 0.3369
vn 0.1186 -0.7260 0.6774
vn -0.3615 0.3259 0.8736
vn -0.9797 -0.0370 -0.1968
vn 0.9583 -0.2537 -0.1315
vn -0.2915 0.0542 -0.9550
vn -0.2602 -0.3303 0.9073
vn 0.2440 0.0016 -0.9698
vn -0.4448 -0.6018 0.6633
vn 0.1687 0.0316 0.9852
vn 0.0384 0.4968 0.8670
vn -0.4668 0.5590 0.6853
vn 0.0494 -0.5012 0.8639
vn -0.3302 0.3125 0.8907
vn 0.1259 0.0673 -0.9898
s off
f 16//1 15//1 4//1
f 14//2 6//2 5//2
f 12//3 13//3 8//3
f 12//4 16//4 14//4
f 2//5 10//5 1//5
f 1//6 11//6 3//6
f 5//7 3//7 11//7
f 4//8 1//8 3//8
f 15//9 7//9 2//9
f 10//10 11//10 1//10
f 10//11 8//11 13//11
f 6//12 9//12 3//12
f 13//13 12//13 14//13
f 12//14 7//14 15//14
f 9//15 16//15 4//15
f 14//16 10//16 13//16
f 7//17 12//17 8//17
f 9//18 4//18 3//18
f 7//19 8//19 2//19
f 14//20 16//20 6//20
f 1//21 15//21 2//21
f 12//22 15//22 16//22
f 5//23 6//23 3//23
f 10//24 5//24 11//24
f 10//25 2//25 8//25
f 9//26 6//26 16//26
f 14//27 5//27 10//27
f 1//28 4//28 15//28
