# Blender v2.82 (sub 7) OBJ File: ''
# www.blender.org
o anymal_LH_ADAPTER_TO_FOOT_constraints_in_RFleg.001
v 0.566536 -0.071592 0.243635
v 0.595321 0.012422 -0.207516
v 0.491904 0.808792 -0.359137
v 0.034655 0.840677 -0.195155
v 0.065783 0.844933 0.165629
v 0.039679 1.096846 0.009292
v -0.151535 0.419959 -0.005473
v 0.715284 1.095852 -0.199108
v 1.010499 0.090804 0.019044
v 0.052973 -0.017296 0.009360
v 0.637866 0.836331 0.335293
v 1.011837 0.750814 0.079630
v 0.684289 1.090996 0.098302
v 0.972886 0.634156 -0.146027
vn 0.5505 -0.0774 0.8312
vn -0.4062 -0.2201 -0.8869
vn 0.9841 0.0143 -0.1772
vn 0.8312 0.4222 -0.3617
vn -0.4238 -0.1680 0.8900
vn -0.8351 0.2250 0.5019
vn 0.4447 0.1465 -0.8836
vn 0.4990 -0.2201 -0.8382
vn -0.2337 0.6058 -0.7605
vn -0.4140 -0.1498 0.8979
vn -0.1971 0.6869 0.6995
vn 0.2667 -0.9504 -0.1600
vn -0.9134 0.2648 -0.3093
vn -0.0198 -0.9827 -0.1843
vn 0.5627 0.5059 0.6538
vn 0.0067 0.9998 0.0170
vn -0.3519 -0.2190 -0.9101
vn 0.4840 -0.1255 0.8660
vn 0.7200 0.6886 0.0863
vn 0.3623 -0.1287 -0.9231
vn -0.2295 0.6099 -0.7585
vn -0.2846 -0.0741 0.9558
vn -0.1126 0.5155 0.8495
vn -0.3428 -0.2247 -0.9121
s off
f 11//1 9//1 12//1
f 10//2 7//2 4//2
f 9//3 14//3 12//3
f 8//4 12//4 14//4
f 7//5 10//5 1//5
f 7//6 5//6 6//6
f 3//7 8//7 14//7
f 2//8 14//8 9//8
f 3//9 6//9 8//9
f 1//10 5//10 7//10
f 13//11 5//11 11//11
f 1//12 2//12 9//12
f 7//13 6//13 4//13
f 10//14 2//14 1//14
f 13//15 11//15 12//15
f 6//16 13//16 8//16
f 10//17 3//17 2//17
f 11//18 1//18 9//18
f 8//19 13//19 12//19
f 2//20 3//20 14//20
f 3//21 4//21 6//21
f 1//22 11//22 5//22
f 13//23 6//23 5//23
f 10//24 4//24 3//24
