# Blender v2.82 (sub 7) OBJ File: ''
# www.blender.org
o anymal_LF_ADAPTER_TO_FOOT_constraints_in_LHleg_reduced_anymal_LF_ADAPTER_TO_FOOT_constraints_in_LHleg
v 0.163150 -0.438783 -0.263018
v 0.927450 -0.200288 -0.287722
v 1.044893 0.435004 0.081851
v -0.031123 0.161843 0.159798
v 0.176443 0.536069 0.181626
v 0.706292 -0.364773 0.117791
v 0.565121 -0.586696 -0.095910
v 0.820494 -0.504151 -0.270371
v 1.074465 -0.313263 -0.058696
v 1.102657 0.086717 0.195902
v 0.516031 0.579422 0.016995
v -0.076504 -0.268152 -0.065902
v -0.037246 0.133246 -0.088242
v 0.971751 0.336375 0.355277
vn -0.2531 -0.5826 0.7723
vn 0.4449 -0.8619 0.2434
vn -0.6274 0.0180 -0.7785
vn 0.9052 0.2602 0.3360
vn -0.4223 -0.8734 0.2427
vn 0.2882 -0.4033 0.8685
vn 0.9679 0.0828 -0.2373
vn -0.1251 0.3032 -0.9447
vn 0.8620 0.1263 -0.4910
vn -0.2562 -0.4279 0.8667
vn 0.2302 0.4572 -0.8591
vn 0.3660 -0.7557 0.5430
vn -0.0163 -0.0513 -0.9986
vn -0.0420 0.2784 -0.9595
vn 0.2002 0.9033 0.3794
vn -0.2001 0.0539 0.9783
vn 0.7324 -0.2929 -0.6146
vn -0.3979 0.6469 -0.6505
vn 0.4293 -0.5063 0.7479
vn -0.9951 0.0981 0.0133
vn -0.0898 -0.8431 -0.5303
vn -0.8731 0.4863 -0.0345
vn 0.1167 0.8744 0.4710
vn -0.1387 -0.2702 0.9528
s off
f 6//1 12//1 7//1
f 7//2 8//2 9//2
f 13//3 1//3 12//3
f 14//4 10//4 3//4
f 7//5 12//5 1//5
f 6//6 10//6 14//6
f 10//7 9//7 3//7
f 2//8 1//8 11//8
f 9//9 2//9 3//9
f 6//10 4//10 12//10
f 2//11 11//11 3//11
f 6//12 7//12 9//12
f 1//13 2//13 8//13
f 1//14 13//14 11//14
f 3//15 11//15 14//15
f 4//16 14//16 5//16
f 8//17 2//17 9//17
f 13//18 5//18 11//18
f 6//19 9//19 10//19
f 4//20 13//20 12//20
f 8//21 7//21 1//21
f 5//22 13//22 4//22
f 14//23 11//23 5//23
f 6//24 14//24 4//24
