# Blender v2.82 (sub 7) OBJ File: ''
# www.blender.org
o anymal_COM_constraints_in_RFleg_effector_frame_quasi_static_red_anymal_COM_constraints_in_RFleg_effector_frame_quasi_static
v 0.057018 -0.009083 0.425123
v -0.550712 0.141725 0.450049
v -0.424882 0.276843 0.530327
v -0.284767 -0.097113 0.541674
v -0.410317 0.536399 0.375664
v -0.544743 0.443559 0.303190
v -0.463563 -0.061081 0.489385
v -0.284857 0.103390 0.585708
v -0.611436 0.077270 0.301546
v -0.070050 0.103717 0.526322
v -0.266923 0.380085 0.533398
v 0.047738 0.292647 0.417180
v 0.019692 0.470538 0.295226
v -0.156040 0.535813 0.384692
vn 0.0218 0.8276 -0.5609
vn -0.0238 0.6992 0.7145
vn 0.9817 0.0252 -0.1890
vn -0.8433 -0.2726 0.4631
vn 0.6439 0.0399 0.7640
vn -0.0144 0.0071 -0.9999
vn 0.0084 -0.8097 -0.5868
vn 0.3810 -0.3416 0.8592
vn 0.5326 0.5341 0.6566
vn -0.9358 0.1690 0.3093
vn -0.7262 0.3124 0.6125
vn 0.1450 -0.2481 -0.9578
vn -0.6381 0.4203 0.6452
vn -0.3394 0.4955 0.7996
vn 0.3974 0.2606 0.8799
vn -0.5005 -0.0474 0.8644
vn 0.2627 0.1628 0.9511
vn -0.1449 0.1929 0.9705
vn 0.4170 0.4546 0.7870
vn 0.2610 -0.2070 0.9429
vn -0.4304 -0.0599 0.9007
vn -0.0418 0.6517 -0.7573
vn -0.3124 -0.2039 0.9278
vn 0.0066 -0.8027 -0.5964
s off
f 14//1 13//1 5//1
f 11//2 14//2 5//2
f 12//3 1//3 13//3
f 2//4 9//4 7//4
f 12//5 10//5 1//5
f 13//6 9//6 6//6
f 4//7 7//7 1//7
f 4//8 1//8 10//8
f 12//9 13//9 14//9
f 9//10 2//10 6//10
f 2//11 3//11 6//11
f 1//12 9//12 13//12
f 3//13 5//13 6//13
f 11//14 5//14 3//14
f 10//15 12//15 11//15
f 7//16 3//16 2//16
f 11//17 8//17 10//17
f 11//18 3//18 8//18
f 12//19 14//19 11//19
f 8//20 4//20 10//20
f 8//21 3//21 7//21
f 13//22 6//22 5//22
f 7//23 4//23 8//23
f 1//24 7//24 9//24
