# Blender v2.82 (sub 7) OBJ File: ''
# www.blender.org
o anymal_LH_ADAPTER_TO_FOOT_constraints_in_RHleg_reduced_anymal_LH_ADAPTER_TO_FOOT_constraints_in_RHleg
v 0.413101 -0.077295 -0.059516
v -0.571614 0.563819 -0.171930
v -0.436079 0.885108 -0.166350
v -0.562334 0.822942 0.095880
v -0.190730 -0.171429 0.006500
v 0.613152 0.691778 -0.168092
v -0.182569 1.026347 -0.002050
v 0.292060 0.656645 -0.334931
v -0.376308 0.402947 0.290204
v 0.484892 0.664808 0.262546
v -0.581525 0.250735 0.022530
v -0.353782 0.820544 0.227948
v 0.267543 1.031845 -0.049710
v 0.428733 0.908540 0.115682
vn -0.5199 -0.5074 0.6872
vn 0.0132 0.7403 0.6722
vn 0.1523 -0.4058 0.9012
vn 0.0600 0.7093 -0.7023
vn 0.3221 0.5862 -0.7434
vn -0.0916 0.5988 -0.7956
vn -0.1451 -0.3037 -0.9417
vn 0.8816 0.3755 0.2861
vn 0.9411 -0.2071 0.2673
vn 0.6761 0.7276 -0.1164
vn -0.9994 0.0332 0.0025
vn -0.0133 0.1481 0.9889
vn -0.4762 0.8791 -0.0209
vn -0.5085 -0.4426 -0.7386
vn -0.3061 0.8113 0.4981
vn -0.1948 0.0991 -0.9758
vn 0.0498 0.8234 0.5653
vn -0.7773 -0.0543 0.6268
vn 0.0626 0.5256 0.8484
vn -0.5275 0.1530 0.8357
vn -0.8678 0.3718 -0.3297
vn 0.4681 -0.2418 -0.8500
vn 0.1605 -0.3950 0.9046
vn -0.0462 -0.3576 -0.9327
s off
f 11//1 5//1 9//1
f 12//2 14//2 7//2
f 9//3 1//3 10//3
f 8//4 3//4 7//4
f 8//5 13//5 6//5
f 8//6 7//6 13//6
f 8//7 5//7 2//7
f 6//8 14//8 10//8
f 1//9 6//9 10//9
f 14//10 6//10 13//10
f 11//11 4//11 2//11
f 12//12 9//12 10//12
f 3//13 4//13 7//13
f 5//14 11//14 2//14
f 12//15 7//15 4//15
f 8//16 2//16 3//16
f 14//17 13//17 7//17
f 9//18 4//18 11//18
f 12//19 10//19 14//19
f 9//20 12//20 4//20
f 3//21 2//21 4//21
f 8//22 6//22 1//22
f 9//23 5//23 1//23
f 8//24 1//24 5//24
