# Blender v2.82 (sub 7) OBJ File: ''
# www.blender.org
o anymal_COM_constraints_in_RFleg_effector_frame_quasi_static.002_anymal_COM_constraints_in_RFleg_effector_frame_quasi_static.007
v -0.035300 -0.028139 0.420626
v 0.135414 -0.066174 0.422354
v 0.442539 -0.067861 0.295447
v 0.549138 0.239282 0.399845
v 0.053547 0.597657 0.327900
v 0.517040 0.443135 0.366585
v 0.312669 0.526835 0.449509
v -0.084929 0.371628 0.517995
v 0.384166 0.054585 0.455483
v 0.115362 0.162605 0.572758
v 0.181693 0.464411 0.524442
v 0.443946 0.557788 0.294550
v 0.100834 0.333519 0.577835
v -0.047473 0.489802 0.475945
v 0.397380 0.302306 0.517721
v -0.081900 0.210004 0.535760
vn 0.1485 -0.5341 0.8323
vn 0.1974 -0.0123 0.9802
vn 0.5345 -0.2327 0.8125
vn -0.8267 0.0342 -0.5616
vn 0.2176 0.2504 0.9434
vn 0.6850 -0.4361 0.5835
vn -0.9571 -0.0493 -0.2854
vn -0.1901 -0.8734 -0.4483
vn 0.4981 0.6662 0.5550
vn 0.6999 -0.0026 -0.7143
vn 0.2625 -0.7177 0.6449
vn -0.2866 0.0994 0.9529
vn -0.0427 0.8211 0.5691
vn -0.2101 0.3862 0.8982
vn -0.8508 0.0852 -0.5185
vn -0.2694 -0.4614 0.8453
vn 0.1219 0.9484 0.2927
vn 0.3146 0.3826 0.8687
vn 0.7061 -0.0044 -0.7081
vn 0.6538 0.2210 0.7236
vn -0.0382 0.7996 0.5993
vn -0.2535 -0.0008 -0.9673
vn 0.3022 -0.2474 0.9206
vn 0.4830 0.4163 0.7703
vn -0.1947 -0.0457 0.9798
vn -0.1378 0.4459 0.8844
vn -0.1314 -0.5526 0.8230
vn -0.0978 -0.1323 -0.9864
s off
f 10//1 2//1 9//1
f 10//2 15//2 13//2
f 15//3 9//3 4//3
f 8//4 5//4 1//4
f 11//5 13//5 15//5
f 9//6 3//6 4//6
f 16//7 8//7 1//7
f 2//8 1//8 3//8
f 7//9 6//9 12//9
f 12//10 6//10 3//10
f 2//11 3//11 9//11
f 16//12 13//12 8//12
f 5//13 14//13 7//13
f 13//14 14//14 8//14
f 8//15 14//15 5//15
f 1//16 10//16 16//16
f 12//17 5//17 7//17
f 7//18 11//18 15//18
f 3//19 6//19 4//19
f 6//20 15//20 4//20
f 14//21 11//21 7//21
f 1//22 12//22 3//22
f 10//23 9//23 15//23
f 7//24 15//24 6//24
f 16//25 10//25 13//25
f 13//26 11//26 14//26
f 1//27 2//27 10//27
f 1//28 5//28 12//28
