# Blender v2.82 (sub 7) OBJ File: ''
# www.blender.org
o anymal_RF_ADAPTER_TO_FOOT_constraints_in_LFleg_reduced_anymal_RF_ADAPTER_TO_FOOT_constraints_in_LFleg
v 0.374791 -0.617387 -0.320080
v 0.623174 -0.178541 -0.032234
v 0.609655 -0.858066 0.065810
v 0.274049 -1.029616 -0.053660
v 0.440772 -0.532997 0.341175
v -0.501833 -0.932154 -0.063697
v -0.618777 -0.564998 -0.178903
v -0.297868 -0.101942 -0.199563
v -0.216644 -0.896945 0.250841
v -0.475760 -0.708226 -0.304026
v -0.516843 -0.555043 0.217972
v 0.399708 -0.102727 0.186852
v -0.574894 -0.128615 -0.022193
vn -0.1272 -0.0164 0.9917
vn -0.0378 0.1804 -0.9829
vn -0.6201 -0.4852 0.6165
vn 0.8772 0.0514 0.4773
vn 0.1956 0.4580 -0.8671
vn -0.9429 -0.2226 0.2478
vn 0.1740 -0.7688 0.6153
vn 0.0430 -0.5497 -0.8343
vn -0.0439 0.9957 0.0812
vn -0.1978 0.4604 0.8654
vn 0.1195 0.9696 -0.2137
vn 0.2052 -0.5684 0.7968
vn -0.1281 0.3240 0.9374
vn -0.3979 0.3453 -0.8500
vn -0.9686 0.0081 0.2486
vn -0.7965 -0.3968 -0.4562
vn -0.1244 -0.9673 0.2210
vn 0.5152 -0.5505 -0.6569
vn -0.5353 0.2935 -0.7920
vn 0.7181 0.2947 0.6305
vn 0.8221 -0.0973 -0.5610
vn -0.0822 -0.7247 -0.6842
s off
f 5//1 11//1 9//1
f 10//2 8//2 1//2
f 6//3 9//3 11//3
f 5//4 3//4 2//4
f 2//5 1//5 8//5
f 6//6 11//6 7//6
f 9//7 4//7 3//7
f 4//8 10//8 1//8
f 8//9 13//9 12//9
f 13//10 11//10 12//10
f 2//11 8//11 12//11
f 5//12 9//12 3//12
f 12//13 11//13 5//13
f 7//14 13//14 10//14
f 7//15 11//15 13//15
f 6//16 7//16 10//16
f 9//17 6//17 4//17
f 3//18 4//18 1//18
f 13//19 8//19 10//19
f 12//20 5//20 2//20
f 3//21 1//21 2//21
f 6//22 10//22 4//22
