# Blender v2.82 (sub 7) OBJ File: ''
# www.blender.org
o anymal_COM_constraints_in_RHleg_effector_frame_quasi_static_red_anymal_COM_constraints_in_RHleg_effector_frame_quasi_static
v 0.410173 0.116245 0.518643
v -0.075651 0.164223 0.405265
v 0.116220 0.297198 0.520405
v 0.306089 0.038212 0.548948
v 0.505216 0.350007 0.381725
v -0.051162 0.452079 0.296814
v 0.160269 -0.072875 0.510062
v 0.531216 0.047373 0.348270
v 0.500821 0.388725 0.304252
v 0.253400 0.347760 0.529035
v 0.366206 0.506924 0.343382
v 0.070838 -0.044065 0.489769
v 0.424288 -0.025208 0.456058
v 0.141445 0.524855 0.375291
vn 0.1547 0.7016 0.6955
vn -0.4826 0.5082 0.7133
vn -0.5097 -0.0094 0.8603
vn 0.4187 0.5479 0.7242
vn 0.9961 0.0870 -0.0130
vn -0.0013 -0.1280 -0.9918
vn -0.0721 -0.7142 -0.6962
vn 0.2630 -0.6076 0.7495
vn 0.0549 0.3696 -0.9276
vn 0.8164 0.0063 0.5775
vn 0.6773 0.6728 0.2978
vn -0.1967 -0.3970 -0.8965
vn 0.4758 -0.3158 0.8210
vn -0.0295 0.7680 -0.6397
vn -0.6401 0.3180 0.6994
vn -0.2258 -0.0541 0.9727
vn 0.0456 -0.8490 -0.5264
vn -0.0811 0.0502 0.9954
vn 0.2096 0.0983 0.9728
vn 0.0343 -0.3549 -0.9343
vn -0.2496 0.5400 0.8038
vn 0.4815 0.2889 0.8275
vn 0.7594 -0.1984 0.6197
s off
f 14//1 10//1 11//1
f 3//2 14//2 6//2
f 2//3 12//3 3//3
f 5//4 11//4 10//4
f 5//5 8//5 9//5
f 9//6 8//6 6//6
f 7//7 12//7 8//7
f 4//8 7//8 13//8
f 11//9 9//9 6//9
f 1//10 8//10 5//10
f 11//11 5//11 9//11
f 8//12 12//12 6//12
f 13//13 1//13 4//13
f 11//14 6//14 14//14
f 6//15 2//15 3//15
f 12//16 7//16 4//16 3//16
f 13//17 7//17 8//17
f 3//18 4//18 10//18
f 1//19 10//19 4//19
f 12//20 2//20 6//20
f 3//21 10//21 14//21
f 10//22 1//22 5//22
f 13//23 8//23 1//23
