# Blender v2.82 (sub 7) OBJ File: ''
# www.blender.org
o anymal_LF_ADAPTER_TO_FOOT_constraints_in_RFleg_reduced_anymal_LF_ADAPTER_TO_FOOT_constraints_in_RFleg
v -0.374791 0.617387 0.320080
v -0.590345 0.917113 -0.080321
v -0.323861 0.991981 0.104741
v -0.623174 0.178541 0.032234
v 0.251616 0.101360 0.198705
v 0.229291 1.039698 0.023676
v -0.434731 0.523407 -0.338533
v 0.480116 0.964456 -0.103681
v 0.620373 0.560029 0.178825
v -0.399356 0.103305 -0.186859
v 0.571261 0.126213 0.027767
v 0.482368 0.685939 0.305315
v 0.510515 0.578424 -0.225574
vn 0.2022 -0.4578 -0.8657
vn -0.8779 -0.0338 -0.4776
vn 0.9551 0.1549 -0.2524
vn -0.5899 0.4612 0.6628
vn 0.0393 -0.9967 -0.0714
vn -0.1248 -0.9706 0.2058
vn 0.9647 -0.0177 -0.2629
vn 0.0558 0.6460 0.7613
vn 0.0175 0.4415 -0.8971
vn -0.0486 0.8151 -0.5773
vn 0.4488 -0.3388 0.8269
vn 0.4647 -0.3330 0.8205
vn -0.1163 0.9676 -0.2240
vn -0.7175 -0.2892 -0.6337
vn 0.7853 0.5137 0.3455
vn 0.0322 -0.1916 0.9809
vn -0.0251 0.5008 0.8652
vn -0.8343 0.1191 0.5383
vn 0.4704 0.7306 0.4949
vn -0.2051 -0.4530 0.8676
vn 0.1309 -0.3269 -0.9360
s off
f 10//1 13//1 11//1
f 7//2 4//2 2//2
f 9//3 13//3 8//3
f 2//4 1//4 3//4
f 5//5 10//5 11//5
f 4//6 10//6 5//6
f 11//7 13//7 9//7
f 6//8 3//8 12//8
f 8//9 13//9 7//9 2//9
f 8//10 2//10 6//10
f 12//11 11//11 9//11
f 5//12 11//12 12//12
f 2//13 3//13 6//13
f 10//14 4//14 7//14
f 9//15 8//15 12//15
f 5//16 12//16 1//16
f 12//17 3//17 1//17
f 2//18 4//18 1//18
f 6//19 12//19 8//19
f 4//20 5//20 1//20
f 13//21 10//21 7//21
