# Blender v2.82 (sub 7) OBJ File: ''
# www.blender.org
o anymal_LF_ADAPTER_TO_FOOT_constraints_in_RHleg.001_anymal_LF_ADAPTER_TO_FOOT_constraints_in_RHleg.009
v 0.633673 -1.075029 0.306300
v 0.573401 0.011249 0.240147
v -0.153913 -0.617436 -0.004976
v 0.098938 -0.907769 -0.228752
v 0.769842 0.045426 -0.189629
v 0.420095 0.083494 -0.159968
v 0.628751 -1.106725 -0.158208
v 0.870653 -0.966348 -0.240114
v 0.031622 0.000423 0.003187
v 0.076092 -1.064545 0.110170
v 1.032210 -0.536230 0.040106
v 0.949506 -0.879857 0.070838
v 1.004817 -0.113069 -0.002173
v 0.603048 -0.799873 0.361237
vn 0.6286 -0.0844 0.7732
vn -0.0799 0.0417 -0.9959
vn 0.3956 0.8834 0.2511
vn 0.6290 -0.0822 0.7731
vn -0.4337 0.0089 0.9010
vn -0.8207 -0.4955 -0.2845
vn 0.5120 0.1182 0.8508
vn 0.8628 0.0053 -0.5056
vn -0.3274 -0.2199 0.9189
vn -0.1152 0.9689 0.2191
vn 0.5522 -0.8322 0.0509
vn -0.2697 -0.8669 -0.4192
vn 0.9538 -0.2451 -0.1737
vn 0.6618 0.1030 -0.7425
vn 0.1183 0.9841 0.1323
vn -0.0467 -0.4421 -0.8958
vn -0.4940 0.2184 -0.8416
vn -0.4087 0.1201 0.9047
vn -0.0092 0.0722 -0.9973
vn 0.5347 0.1439 0.8327
vn 0.5249 -0.8450 0.1019
vn -0.0428 -0.9967 0.0685
vn -0.4080 0.1345 -0.9030
vn -0.4002 0.1081 0.9100
s off
f 1//1 12//1 14//1
f 8//2 6//2 5//2
f 5//3 2//3 13//3
f 14//4 12//4 11//4
f 3//5 10//5 14//5
f 3//6 4//6 10//6
f 2//7 11//7 13//7
f 8//8 13//8 11//8
f 10//9 1//9 14//9
f 6//10 9//10 2//10
f 7//11 12//11 1//11
f 7//12 10//12 4//12
f 12//13 8//13 11//13
f 8//14 5//14 13//14
f 6//15 2//15 5//15
f 7//16 4//16 8//16
f 3//17 6//17 4//17
f 2//18 3//18 14//18
f 8//19 4//19 6//19
f 2//20 14//20 11//20
f 7//21 8//21 12//21
f 7//22 1//22 10//22
f 3//23 9//23 6//23
f 2//24 9//24 3//24
