# Blender v2.82 (sub 7) OBJ File: ''
# www.blender.org
o anymal_COM_constraints_in_LFleg_effector_frame_quasi_static_red_anymal_COM_constraints_in_LFleg_effector_frame_quasi_static
v -0.015055 -0.485060 0.301539
v -0.468358 0.056761 0.480433
v -0.162166 0.071835 0.513634
v -0.307255 -0.536888 0.387818
v -0.501579 -0.476755 0.310979
v 0.077928 -0.327392 0.361252
v -0.169121 -0.455034 0.457588
v -0.611680 -0.102618 0.309403
v -0.320386 -0.437897 0.488681
v -0.332482 -0.246689 0.558111
v -0.508515 -0.182030 0.486247
v -0.037637 0.000057 0.459908
v -0.249047 -0.092408 0.582926
v -0.062533 -0.181160 0.508927
vn 0.4258 0.1511 0.8921
vn 0.1807 0.3416 -0.9223
vn -0.8805 -0.2574 0.3981
vn 0.4711 0.1694 0.8656
vn 0.2815 -0.8518 0.4419
vn -0.3736 0.0853 0.9236
vn -0.4431 -0.6680 0.5979
vn 0.0499 0.6525 -0.7562
vn -0.8226 0.1517 0.5480
vn -0.1182 0.4384 0.8910
vn 0.0592 0.7051 -0.7066
vn 0.2419 -0.2689 0.9323
vn -0.5860 -0.4243 0.6903
vn -0.0196 -0.0100 -0.9998
vn 0.4892 -0.3409 0.8028
vn -0.0251 -0.8171 -0.5759
vn 0.2269 -0.2731 0.9348
vn 0.1543 -0.3286 0.9318
vn -0.3628 0.0465 0.9307
vn 0.1584 0.2666 -0.9507
vn 0.5353 -0.5564 0.6355
vn 0.7572 0.0716 0.6493
vn -0.4580 -0.3289 0.8259
vn 0.0643 -0.7080 0.7033
s off
f 3//1 13//1 14//1
f 8//2 12//2 6//2
f 5//3 11//3 8//3
f 3//4 14//4 12//4
f 7//5 4//5 1//5
f 11//6 13//6 2//6
f 4//7 9//7 5//7
f 3//8 12//8 2//8
f 8//9 11//9 2//9
f 2//10 13//10 3//10
f 8//11 2//11 12//11
f 7//12 14//12 13//12
f 11//13 5//13 9//13
f 1//14 5//14 8//14
f 6//15 14//15 7//15
f 1//16 4//16 5//16
f 7//17 13//17 10//17
f 9//18 7//18 10//18
f 11//19 10//19 13//19
f 1//20 8//20 6//20
f 7//21 1//21 6//21
f 6//22 12//22 14//22
f 9//23 10//23 11//23
f 4//24 7//24 9//24
