# Blender v2.82 (sub 7) OBJ File: ''
# www.blender.org
o anymal_RF_ADAPTER_TO_FOOT_constraints_in_RHleg_reduced_anymal_RF_ADAPTER_TO_FOOT_constraints_in_RHleg
v 0.874150 0.448867 0.069697
v 0.838789 -0.543653 0.252407
v -0.121981 -0.051511 0.007001
v -0.102305 0.110189 -0.182625
v 0.059005 -0.501154 0.086477
v 0.363111 0.573586 -0.164152
v 0.170869 -0.313850 0.255923
v 0.986240 -0.113993 0.320082
v 0.653065 0.518736 -0.317728
v -0.070987 0.431553 -0.096182
v 0.745946 -0.514693 -0.033012
v 1.099811 0.342896 -0.072767
v 0.942216 0.206566 -0.336205
v 1.069239 -0.365223 0.040844
vn -0.2356 0.2738 -0.9325
vn 0.2133 0.9755 0.0542
vn -0.9947 0.1014 -0.0167
vn -0.0352 -0.9954 -0.0895
vn -0.7232 -0.1729 0.6686
vn -0.0433 -0.1409 0.9891
vn 0.8773 -0.1127 -0.4665
vn 0.3935 0.9174 -0.0591
vn -0.1634 0.3736 0.9131
vn 0.7658 -0.3480 0.5407
vn 0.5573 0.5529 -0.6195
vn 0.4516 -0.8609 -0.2342
vn -0.1318 0.7258 0.6751
vn 0.6172 0.4191 0.6659
vn -0.1987 -0.5896 0.7829
vn 0.9595 0.0038 0.2818
vn -0.5016 0.2310 0.8337
vn -0.1388 -0.0701 -0.9878
vn 0.3899 -0.4450 -0.8062
vn -0.1627 -0.4332 -0.8865
vn -0.8104 -0.4016 -0.4265
vn -0.1029 -0.3615 -0.9267
vn -0.3678 0.4028 -0.8382
vn -0.1668 0.3764 0.9113
s off
f 6//1 4//1 10//1
f 9//2 6//2 1//2
f 4//3 3//3 10//3
f 5//4 11//4 2//4
f 5//5 7//5 3//5
f 2//6 8//6 7//6
f 12//7 14//7 13//7
f 9//8 1//8 12//8
f 1//9 7//9 8//9
f 8//10 2//10 14//10
f 9//11 12//11 13//11
f 2//12 11//12 14//12
f 10//13 1//13 6//13
f 12//14 1//14 8//14
f 5//15 2//15 7//15
f 8//16 14//16 12//16
f 3//17 7//17 10//17
f 13//18 4//18 9//18
f 14//19 11//19 13//19
f 5//20 4//20 11//20
f 5//21 3//21 4//21
f 13//22 11//22 4//22
f 6//23 9//23 4//23
f 1//24 10//24 7//24
