# Blender v2.82 (sub 7) OBJ File: ''
# www.blender.org
o anymal_COM_constraints_in_LFleg_effector_frame_quasi_static.001_anymal_COM_constraints_in_LFleg_effector_frame_quasi_static.003
v -0.018386 -0.044425 0.423556
v -0.481759 0.019530 0.305900
v -0.072333 0.615141 0.307145
v 0.084900 0.149811 0.501762
v -0.370580 -0.070909 0.352599
v -0.044000 0.261389 0.581238
v -0.217687 0.104211 0.531897
v -0.487585 0.137149 0.424248
v -0.305798 0.335635 0.563475
v -0.553603 0.334793 0.397078
v 0.047762 0.494796 0.456596
v 0.087900 0.323488 0.535304
v -0.470652 0.535433 0.301701
v -0.252438 0.519702 0.460385
v -0.473448 0.487710 0.376126
v -0.039544 0.499984 0.495780
vn -0.0982 -0.6688 0.7369
vn -0.1167 -0.1778 0.9771
vn 0.9317 0.0533 -0.3592
vn 0.3982 -0.1806 0.8993
vn -0.9318 -0.2794 0.2318
vn 0.2235 -0.1517 -0.9628
vn -0.3746 -0.4832 0.7913
vn -0.8360 0.4757 0.2736
vn -0.0078 0.8529 0.5220
vn -0.3677 0.5333 0.7619
vn 0.2609 0.8435 0.4696
vn -0.0954 0.5073 0.8565
vn -0.7661 0.0113 -0.6426
vn 0.2089 -0.2336 -0.9496
vn 0.6846 -0.0720 -0.7253
vn -0.1884 0.9176 0.3500
vn 0.7803 0.0021 -0.6254
vn 0.3865 0.4583 0.8004
vn -0.3092 0.8058 0.5051
vn -0.5559 -0.0718 0.8282
vn 0.1552 -0.4479 0.8805
vn 0.0154 -0.0085 -0.9998
vn -0.6611 -0.5482 0.5123
vn -0.5173 0.3765 0.7685
vn 0.0316 0.3365 0.9412
vn 0.1683 0.3296 0.9290
vn -0.3850 -0.2671 0.8834
vn 0.1543 -0.4385 0.8854
s off
f 5//1 1//1 7//1
f 9//2 7//2 6//2
f 4//3 11//3 12//3
f 6//4 4//4 12//4
f 10//5 2//5 8//5
f 2//6 3//6 1//6
f 8//7 5//7 7//7
f 13//8 10//8 15//8
f 3//9 14//9 16//9
f 15//10 9//10 14//10
f 3//11 16//11 11//11
f 9//12 16//12 14//12
f 10//13 13//13 2//13
f 5//14 2//14 1//14
f 1//15 3//15 4//15
f 13//16 14//16 3//16
f 3//17 11//17 4//17
f 16//18 12//18 11//18
f 13//19 15//19 14//19
f 8//20 9//20 10//20
f 7//21 4//21 6//21
f 2//22 13//22 3//22
f 8//23 2//23 5//23
f 15//24 10//24 9//24
f 9//25 6//25 16//25
f 16//26 6//26 12//26
f 8//27 7//27 9//27
f 7//28 1//28 4//28
