# Blender v2.82 (sub 7) OBJ File: ''
# www.blender.org
o anymal_LF_ADAPTER_TO_FOOT_constraints_in_RFleg.001
v 0.311365 -0.393855 0.316398
v -0.186224 0.050348 0.000464
v 0.781606 -0.271669 0.315376
v 1.000399 0.332067 0.086133
v 0.498712 0.567861 0.190735
v 0.881002 0.524746 -0.150286
v 0.253988 0.653188 -0.155496
v 0.205970 -0.527607 -0.133128
v 0.788102 -0.509338 -0.165832
v 0.651806 0.410485 -0.381983
v 1.019990 -0.333578 -0.094990
v 0.171085 -0.557178 0.111014
v 0.851001 -0.605371 0.161323
vn 0.6322 -0.7021 -0.3276
vn 0.1056 -0.3986 0.9110
vn 0.8768 -0.1020 0.4699
vn -0.5925 0.5779 0.5612
vn 0.3939 -0.1545 -0.9061
vn -0.3946 -0.0558 -0.9172
vn -0.8327 -0.5229 -0.1823
vn -0.0472 -0.2351 -0.9708
vn -0.6781 -0.2748 0.6817
vn 0.8246 -0.0866 0.5590
vn 0.3048 0.2396 0.9218
vn 0.9231 0.1261 -0.3634
vn 0.1989 0.9749 0.0997
vn 0.1700 0.8067 -0.5660
vn -0.3962 0.1944 0.8973
vn -0.0479 -0.9609 -0.2728
vn -0.1016 -0.7437 0.6608
vn 0.6929 0.0660 -0.7180
vn -0.4473 0.0966 -0.8892
vn 0.4565 0.7885 0.4121
vn -0.0331 0.1358 0.9902
vn 0.0246 -0.9929 -0.1167
s off
f 13//1 9//1 11//1
f 1//2 13//2 3//2
f 4//3 13//3 11//3
f 5//4 7//4 2//4
f 10//5 11//5 9//5
f 2//6 10//6 8//6
f 12//7 2//7 8//7
f 8//8 10//8 9//8
f 2//9 12//9 1//9
f 4//10 3//10 13//10
f 5//11 3//11 4//11
f 6//12 4//12 11//12
f 5//13 6//13 7//13
f 7//14 6//14 10//14
f 1//15 5//15 2//15
f 12//16 9//16 13//16
f 1//17 12//17 13//17
f 10//18 6//18 11//18
f 2//19 7//19 10//19
f 5//20 4//20 6//20
f 1//21 3//21 5//21
f 12//22 8//22 9//22
