# Blender v2.82 (sub 7) OBJ File: ''
# www.blender.org
o anymal_LH_ADAPTER_TO_FOOT_constraints_in_LFleg_reduced_anymal_LH_ADAPTER_TO_FOOT_constraints_in_LFleg
v -1.089608 0.323532 0.152388
v -0.580553 -0.591396 -0.166604
v -1.119222 -0.312263 -0.176564
v -0.125639 -0.412796 -0.114406
v -0.969295 -0.444563 0.074320
v -0.095478 0.317723 0.254387
v -0.812140 -0.401429 -0.359244
v -0.230418 0.528775 0.051227
v -0.965841 0.436220 0.298186
v -0.245420 -0.424097 0.022208
v -0.161265 -0.163254 -0.190948
v -0.440893 0.571285 0.198095
v -0.927320 0.421385 -0.082499
vn 0.3231 -0.2351 -0.9167
vn 0.9728 0.0712 -0.2206
vn 0.7219 -0.3354 0.6052
vn -0.8834 -0.1823 0.4318
vn 0.0927 0.3345 0.9378
vn 0.1234 0.3350 -0.9341
vn 0.4743 0.7488 0.4629
vn -0.6777 -0.1787 0.7133
vn -0.2601 0.9635 -0.0639
vn 0.2861 -0.4877 -0.8248
vn -0.4423 -0.8624 -0.2461
vn 0.0410 -0.2739 0.9609
vn -0.6087 0.7880 -0.0923
vn -0.4480 0.2280 -0.8644
vn 0.3349 -0.9167 0.2178
vn 0.9023 0.2199 -0.3708
vn 0.0654 -0.8017 0.5942
vn -0.0716 0.9260 -0.3706
vn -0.8405 0.2794 -0.4643
s off
f 11//1 4//1 7//1
f 11//2 6//2 4//2
f 4//3 6//3 10//3
f 5//4 1//4 3//4
f 6//5 12//5 9//5
f 13//6 8//6 11//6 7//6
f 8//7 12//7 6//7
f 9//8 1//8 5//8
f 13//9 9//9 12//9
f 4//10 2//10 7//10
f 3//11 7//11 2//11 5//11
f 9//12 5//12 10//12 6//12
f 13//13 1//13 9//13
f 7//14 3//14 13//14
f 4//15 10//15 2//15
f 6//16 11//16 8//16
f 10//17 5//17 2//17
f 8//18 13//18 12//18
f 13//19 3//19 1//19
