# Blender v2.82 (sub 7) OBJ File: ''
# www.blender.org
o anymal_COM_constraints_in_LHleg_effector_frame_quasi_static_red_anymal_COM_constraints_in_LHleg_effector_frame_quasi_static
v -0.051855 -0.000537 0.419507
v 0.541555 -0.306004 0.303705
v 0.348859 -0.121692 0.544058
v -0.003034 -0.489892 0.314639
v 0.100071 -0.298825 0.513467
v 0.424173 -0.518471 0.316434
v -0.091265 -0.388342 0.298486
v 0.187167 -0.536224 0.397235
v 0.249874 -0.248405 0.561721
v 0.530183 -0.019036 0.354205
v 0.130148 0.061118 0.520666
v -0.068492 -0.224388 0.416904
v 0.392231 0.058253 0.508094
v 0.467106 -0.360915 0.428784
vn -0.9933 0.0728 0.0903
vn 0.0491 0.1844 0.9816
vn 0.4280 -0.2118 0.8786
vn -0.4436 -0.5201 0.7299
vn 0.2968 -0.6067 0.7374
vn 0.0172 -0.0693 -0.9974
vn 0.0057 0.1337 0.9910
vn -0.0266 0.8742 -0.4849
vn -0.0313 0.3006 -0.9532
vn -0.5998 -0.4121 0.6859
vn -0.0067 -0.1628 -0.9866
vn -0.3087 0.0068 0.9511
vn 0.8413 -0.4465 0.3047
vn -0.5831 -0.4132 0.6994
vn 0.6798 -0.0173 0.7332
vn -0.0602 -0.9233 -0.3794
vn 0.7464 0.0074 0.6654
vn -0.1222 -0.4722 0.8729
vn -0.0122 0.8891 -0.4575
vn -0.4918 0.0237 0.8704
vn 0.2333 -0.5203 0.8215
vn 0.8681 -0.0525 0.4937
vn -0.1046 0.1683 -0.9802
vn -0.4882 0.0261 0.8723
s off
f 12//1 1//1 7//1
f 11//2 3//2 13//2
f 9//3 14//3 3//3
f 4//4 8//4 5//4
f 6//5 14//5 8//5
f 2//6 6//6 7//6
f 9//7 3//7 11//7
f 1//8 11//8 10//8
f 1//9 2//9 7//9
f 4//10 12//10 7//10
f 6//11 4//11 7//11
f 5//12 9//12 11//12
f 14//13 6//13 2//13
f 12//14 4//14 5//14
f 14//15 13//15 3//15
f 8//16 4//16 6//16
f 14//17 10//17 13//17
f 8//18 9//18 5//18
f 10//19 11//19 13//19
f 1//20 5//20 11//20
f 9//21 8//21 14//21
f 14//22 2//22 10//22
f 1//23 10//23 2//23
f 1//24 12//24 5//24
