# Blender v2.82 (sub 7) OBJ File: ''
# www.blender.org
o anymal_RF_ADAPTER_TO_FOOT_constraints_in_LHleg_reduced_anymal_RF_ADAPTER_TO_FOOT_constraints_in_LHleg
v 0.142253 -1.001257 0.032306
v 0.224493 -0.686385 -0.290824
v 0.901316 -0.797990 -0.291115
v 0.801638 -0.585339 0.362033
v 0.144981 -0.421041 0.283344
v 0.097125 -0.111360 0.087230
v -0.146547 -0.489076 -0.091375
v 0.643063 -1.037769 -0.040920
v 1.117200 -0.292746 -0.064270
v 1.024005 -0.102951 0.094160
v 0.944731 -0.344541 -0.281438
v 0.129139 -0.227637 -0.179472
v 1.104448 -0.833249 0.187194
v 0.706991 -0.106158 -0.147334
vn -0.2047 -0.3879 0.8987
vn 0.4783 0.6892 -0.5443
vn -0.1301 -0.6729 -0.7282
vn 0.0030 0.5050 0.8631
vn -0.6004 -0.4910 -0.6312
vn -0.0904 0.2171 -0.9719
vn 0.5913 0.1657 0.7892
vn -0.0250 -0.5964 0.8023
vn 0.8953 -0.2051 -0.3954
vn 0.4137 0.7235 -0.5527
vn -0.7006 0.6194 -0.3542
vn 0.4994 -0.8224 -0.2727
vn -0.4136 0.1327 -0.9007
vn -0.0091 1.0000 -0.0014
vn 0.7888 -0.0625 -0.6115
vn -0.7800 -0.0779 0.6210
vn -0.1656 0.8966 -0.4108
vn 0.9196 0.1477 0.3640
vn -0.0461 0.4545 -0.8896
vn 0.0030 0.0210 -0.9998
vn 0.0349 -0.7782 0.6270
s off
f 1//1 4//1 5//1
f 9//2 11//2 10//2
f 2//3 3//3 8//3 1//3
f 4//4 10//4 6//4 5//4
f 2//5 1//5 7//5
f 2//6 12//6 11//6
f 4//7 13//7 10//7
f 1//8 13//8 4//8
f 13//9 3//9 9//9
f 11//10 14//10 10//10
f 12//11 7//11 6//11
f 8//12 3//12 13//12
f 2//13 7//13 12//13
f 6//14 10//14 14//14
f 11//15 9//15 3//15
f 5//16 6//16 7//16 1//16
f 12//17 6//17 14//17
f 9//18 10//18 13//18
f 11//19 12//19 14//19
f 3//20 2//20 11//20
f 8//21 13//21 1//21
