# Blender v2.82 (sub 7) OBJ File: ''
# www.blender.org
o anymal_LF_ADAPTER_TO_FOOT_constraints_in_LHleg.001
v -0.331057 0.075295 -0.228294
v -0.324912 -0.866425 -0.320622
v 0.290834 -1.131798 0.081195
v -0.281043 -0.941883 0.181288
v 0.371916 -0.803123 -0.114969
v -0.398453 -1.084626 -0.134435
v 0.085618 0.112122 -0.076412
v 0.608208 -0.539307 0.108318
v -0.625007 -0.485214 -0.154593
v -0.455566 -0.078478 -0.021071
v 0.487871 -0.151508 0.234791
v 0.427479 -0.969340 0.308615
vn -0.7204 -0.2934 -0.6284
vn -0.6723 0.0374 0.7393
vn -0.8775 0.4331 -0.2058
vn -0.1521 0.6484 0.7459
vn -0.2483 0.8433 0.4766
vn -0.3953 0.0871 -0.9144
vn 0.6884 0.2441 -0.6830
vn -0.2452 0.1740 0.9537
vn -0.8405 -0.3026 0.4494
vn 0.8878 -0.3768 -0.2643
vn 0.7350 0.0069 0.6781
vn -0.2045 -0.8611 0.4654
vn 0.3336 0.0941 -0.9380
vn 0.1786 -0.6728 -0.7180
vn 0.3649 0.3891 -0.8459
vn -0.1722 0.1012 0.9799
vn 0.8225 -0.4845 -0.2980
vn -0.1429 -0.7627 0.6307
vn 0.2704 0.1248 -0.9546
vn 0.2828 -0.5421 -0.7913
s off
f 9//1 2//1 6//1
f 9//2 4//2 10//2
f 9//3 10//3 1//3
f 10//4 11//4 7//4
f 1//5 10//5 7//5
f 2//6 9//6 1//6
f 11//7 5//7 7//7
f 4//8 11//8 10//8
f 9//9 6//9 4//9
f 5//10 12//10 3//10
f 11//11 12//11 8//11
f 3//12 4//12 6//12
f 7//13 2//13 1//13
f 2//14 3//14 6//14
f 11//15 8//15 5//15
f 4//16 12//16 11//16
f 5//17 8//17 12//17
f 3//18 12//18 4//18
f 7//19 5//19 2//19
f 2//20 5//20 3//20
