# Blender v2.82 (sub 7) OBJ File: ''
# www.blender.org
o anymal_RH_ADAPTER_TO_FOOT_constraints_in_LFleg.001
v 0.049678 1.036045 -0.064317
v 0.040536 -0.005377 -0.057735
v -0.607129 1.126902 -0.176437
v -0.826666 0.880464 -0.261497
v -0.544582 -0.078171 0.248031
v -0.743033 0.734358 0.293145
v -0.988656 0.870833 0.078626
v -1.056899 0.286493 0.012084
v -0.655926 1.091899 0.120489
v -0.690742 0.009066 -0.186888
v -0.404065 0.850901 -0.312882
v 0.099451 0.711705 0.115090
v -0.182346 0.960348 0.208582
v -0.911384 0.012295 0.003741
vn 0.4728 -0.2430 0.8470
vn -0.6604 -0.0084 0.7509
vn -0.6243 -0.3095 -0.7173
vn 0.2067 -0.0038 0.9784
vn -0.1425 -0.9786 -0.1484
vn -0.0841 0.3912 -0.9165
vn 0.6137 0.4522 0.6472
vn -0.4137 0.4757 0.7763
vn 0.1665 -0.2012 -0.9653
vn -0.5102 -0.1714 0.8428
vn 0.2140 0.5549 -0.8039
vn -0.0435 0.4430 0.8955
vn -0.1272 -0.1043 -0.9864
vn 0.9586 -0.0102 -0.2844
vn 0.0749 0.9427 0.3252
vn 0.0163 -0.9793 -0.2019
vn -0.8940 0.1524 -0.4214
vn -0.7388 0.6727 -0.0421
vn 0.2013 -0.1365 0.9700
vn 0.4835 -0.0098 -0.8753
vn -0.5783 -0.3296 0.7463
vn -0.5608 -0.1571 -0.8129
vn 0.2381 0.9592 0.1522
vn -0.5196 0.8245 -0.2241
s off
f 5//1 2//1 12//1
f 7//2 8//2 6//2
f 10//3 14//3 8//3
f 12//4 6//4 5//4
f 14//5 10//5 5//5
f 4//6 3//6 11//6
f 1//7 13//7 12//7
f 9//8 7//8 6//8
f 11//9 2//9 10//9
f 8//10 5//10 6//10
f 11//11 3//11 1//11
f 9//12 6//12 13//12
f 10//13 4//13 11//13
f 2//14 1//14 12//14
f 3//15 13//15 1//15
f 10//16 2//16 5//16
f 7//17 4//17 8//17
f 4//18 9//18 3//18
f 12//19 13//19 6//19
f 11//20 1//20 2//20
f 8//21 14//21 5//21
f 10//22 8//22 4//22
f 3//23 9//23 13//23
f 4//24 7//24 9//24
