# Blender v2.82 (sub 7) OBJ File: ''
# www.blender.org
o anymal_LF_ADAPTER_TO_FOOT_constraints_in_LFleg_reduced_anymal_LF_ADAPTER_TO_FOOT_constraints_in_LFleg
v -0.093028 0.851273 -0.038510
v 0.210743 0.871482 0.049074
v -0.249582 0.655344 0.024308
v 0.182526 0.667506 -0.004495
v 0.254112 0.602981 0.098136
v 0.127460 0.548561 0.124147
v -0.199566 0.618068 -0.014387
v 0.028638 0.459571 0.071118
vn 0.8291 0.0319 -0.5582
vn 0.4275 -0.7633 0.4844
vn -0.5791 -0.8144 0.0360
vn 0.4503 -0.5801 -0.6788
vn -0.3060 -0.2131 0.9279
vn 0.2577 0.2119 -0.9427
vn -0.2091 0.3403 0.9168
vn -0.5293 0.1555 -0.8340
vn 0.1155 0.1966 0.9737
vn 0.0577 -0.2524 -0.9659
s off
f 5//1 4//1 2//1
f 6//2 8//2 5//2
f 7//3 8//3 3//3
f 8//4 4//4 5//4
f 8//5 6//5 3//5
f 4//6 1//6 2//6
f 1//7 3//7 6//7 2//7
f 7//8 3//8 1//8
f 6//9 5//9 2//9
f 7//10 1//10 4//10 8//10
