# Blender v2.82 (sub 7) OBJ File: ''
# www.blender.org
o anymal_LH_ADAPTER_TO_FOOT_constraints_in_LFleg.001
v -0.604854 0.429593 -0.031328
v 0.338803 0.283268 0.310994
v 0.085656 -0.109935 0.117891
v 0.002552 0.884604 0.279339
v 0.528585 0.183279 0.172129
v 0.504785 0.836487 0.264048
v 0.283868 1.078593 0.136658
v -0.357786 0.970965 -0.356733
v -0.005171 -0.038107 -0.112619
v 0.545635 0.622436 -0.009870
v 0.297939 1.037311 -0.029010
v -0.401721 1.078756 -0.113129
v -0.541162 0.172615 -0.188191
vn -0.3427 -0.9268 -0.1538
vn 0.9908 0.0172 0.1343
vn 0.3162 -0.1172 -0.9414
vn -0.2204 0.7648 0.6054
vn 0.7599 0.6430 -0.0957
vn 0.0374 0.0734 0.9966
vn 0.0855 0.9685 -0.2341
vn 0.0755 0.5174 0.8524
vn -0.9258 0.2545 -0.2796
vn 0.5333 -0.7249 -0.4360
vn -0.5955 0.2812 0.7525
vn 0.5483 -0.3382 -0.7648
vn 0.5543 -0.0961 0.8268
vn -0.5529 -0.5297 0.6433
vn 0.2757 -0.5609 0.7806
vn 0.4200 0.2100 -0.8829
vn -0.8609 0.0921 -0.5004
vn -0.3622 -0.2125 0.9076
vn 0.0518 -0.2177 -0.9746
vn 0.8352 0.4868 -0.2559
vn 0.1008 0.9164 -0.3873
vn -0.3578 -0.1515 0.9214
s off
f 3//1 13//1 9//1
f 6//2 5//2 10//2
f 9//3 8//3 10//3
f 4//4 7//4 12//4
f 6//5 11//5 7//5
f 4//6 2//6 6//6
f 11//7 12//7 7//7
f 7//8 4//8 6//8
f 1//9 12//9 8//9
f 3//10 9//10 5//10
f 1//11 4//11 12//11
f 5//12 9//12 10//12
f 2//13 5//13 6//13
f 3//14 1//14 13//14
f 2//15 3//15 5//15
f 8//16 11//16 10//16
f 13//17 1//17 8//17
f 2//18 1//18 3//18
f 9//19 13//19 8//19
f 6//20 10//20 11//20
f 11//21 8//21 12//21
f 2//22 4//22 1//22
