# Blender v2.82 (sub 7) OBJ File: ''
# www.blender.org
o anymal_RF_ADAPTER_TO_FOOT_constraints_in_LFleg_reduced_anymal_RF_ADAPTER_TO_FOOT_constraints_in_LFleg
v 0.435462 -0.735052 0.326166
v 0.593641 -0.574106 -0.147817
v -0.472403 -0.969829 0.076179
v 0.098666 -1.060480 -0.050164
v -0.352105 -0.535153 -0.371323
v 0.371944 0.086648 -0.060253
v 0.462740 -0.820848 -0.161847
v -0.464544 -0.732475 0.219669
v 0.497227 -0.022182 0.147920
v -0.332731 0.136502 0.039708
v 0.427802 -0.959467 0.082562
v -0.640792 -0.202126 -0.051874
v -0.525117 -0.775916 -0.218550
vn -0.0480 -0.7339 0.6776
vn -0.0835 0.5219 -0.8489
vn -0.5164 0.2481 0.8197
vn -0.1024 -0.5121 0.8528
vn 0.8737 0.3393 -0.3484
vn -0.0784 0.2482 0.9655
vn 0.9489 -0.0033 0.3155
vn -0.2429 -0.8298 -0.5025
vn -0.7076 0.0618 -0.7039
vn 0.0208 -0.7654 0.6432
vn 0.0533 -0.4872 -0.8717
vn 0.2331 0.2042 -0.9508
vn -0.1141 0.2180 0.9693
vn -0.9390 -0.1547 0.3073
vn 0.4133 -0.8162 -0.4038
vn -0.9774 -0.2081 0.0379
vn 0.9369 -0.2714 0.2205
vn 0.8785 -0.4584 -0.1344
vn 0.2270 -0.0652 -0.9717
vn 0.1212 0.9078 0.4016
vn -0.3126 0.5024 -0.8062
vn -0.0125 -0.5293 -0.8483
s off
f 4//1 11//1 1//1
f 6//2 5//2 10//2
f 8//3 10//3 12//3
f 1//4 8//4 3//4
f 2//5 6//5 9//5
f 10//6 1//6 9//6
f 2//7 9//7 1//7
f 13//8 4//8 3//8
f 5//9 13//9 12//9
f 4//10 1//10 3//10
f 7//11 4//11 5//11
f 6//12 2//12 5//12
f 8//13 1//13 10//13
f 3//14 8//14 12//14
f 7//15 11//15 4//15
f 13//16 3//16 12//16
f 11//17 2//17 1//17
f 7//18 2//18 11//18
f 7//19 5//19 2//19
f 9//20 6//20 10//20
f 5//21 12//21 10//21
f 4//22 13//22 5//22
