# Blender v2.82 (sub 7) OBJ File: ''
# www.blender.org
o anymal_LH_ADAPTER_TO_FOOT_constraints_in_RHleg.001
v 0.761659 -0.480262 -0.231634
v 0.447368 -0.317640 -0.304192
v 0.686916 -0.415404 0.266028
v 0.964890 -0.500664 0.054496
v 0.582932 0.503750 -0.254438
v -0.082578 0.006506 -0.057457
v -0.132038 -0.377622 -0.015577
v 0.207377 -0.604547 -0.002109
v 0.521976 0.550393 0.166301
v 0.873842 0.453138 0.155748
v 0.026323 0.414483 0.060482
v 0.384090 0.314830 0.286848
v 1.006632 -0.175633 -0.093726
v 1.017627 0.215335 -0.047082
vn 0.1346 0.3879 0.9118
vn 0.4772 0.0909 -0.8741
vn -0.1631 -0.6474 -0.7445
vn 0.2805 -0.9455 0.1654
vn 0.7513 -0.3513 -0.5587
vn 0.9840 -0.0481 0.1716
vn 0.2390 0.0715 0.9684
vn 0.4340 0.0580 -0.8990
vn -0.9332 0.1555 0.3239
vn -0.3300 -0.5395 -0.7746
vn -0.3603 0.1155 -0.9257
vn 0.2348 0.0201 -0.9718
vn -0.2338 0.9621 -0.1405
vn -0.3183 0.5729 0.7553
vn -0.5296 0.0245 0.8479
vn 0.7643 -0.0833 0.6395
vn 0.2639 0.9621 -0.0684
vn -0.4175 -0.1984 0.8867
vn -0.2272 -0.9695 0.0922
vn -0.4421 -0.0408 -0.8960
vn -0.5024 0.3612 -0.7856
vn 0.6170 0.0658 0.7842
vn 0.6290 0.6884 -0.3612
vn -0.2089 -0.2565 0.9437
s off
f 9//1 12//1 10//1
f 13//2 5//2 14//2
f 8//3 2//3 1//3
f 1//4 3//4 8//4
f 1//5 13//5 4//5
f 4//6 13//6 14//6
f 12//7 3//7 10//7
f 13//8 1//8 5//8
f 7//9 11//9 6//9
f 7//10 2//10 8//10
f 6//11 5//11 2//11
f 1//12 2//12 5//12
f 11//13 9//13 5//13
f 11//14 12//14 9//14
f 7//15 12//15 11//15
f 3//16 14//16 10//16
f 10//17 5//17 9//17
f 12//18 8//18 3//18
f 1//19 4//19 3//19
f 7//20 6//20 2//20
f 6//21 11//21 5//21
f 3//22 4//22 14//22
f 10//23 14//23 5//23
f 12//24 7//24 8//24
