# Blender v2.82 (sub 7) OBJ File: ''
# www.blender.org
o anymal_COM_constraints_in_RHleg_effector_frame_quasi_static.002_anymal_COM_constraints_in_RHleg_effector_frame_quasi_static.003
v 0.479090 -0.470694 0.310964
v 0.482249 0.001535 0.310463
v 0.531194 -0.190226 0.419887
v 0.311800 -0.350711 0.521030
v 0.191090 -0.181422 0.566191
v 0.100590 -0.453116 0.494281
v 0.086756 0.083325 0.396658
v -0.085503 -0.129009 0.517376
v 0.364465 0.086658 0.314819
v 0.221714 -0.003856 0.481690
v 0.017039 -0.521369 0.368650
v -0.059611 -0.394215 0.485712
v 0.294791 -0.543863 0.306695
vn -0.1970 -0.1352 0.9710
vn 0.0236 -0.0012 -0.9997
vn 0.6031 -0.3836 0.6994
vn -0.3035 -0.7379 0.6028
vn 0.0310 -0.8868 0.4611
vn 0.2717 -0.7255 0.6323
vn 0.3957 0.0374 0.9176
vn 0.1590 0.8044 0.5724
vn 0.9085 -0.0065 -0.4178
vn 0.0019 -0.2565 0.9666
vn -0.6580 0.1104 -0.7449
vn 0.4410 0.5750 0.6891
vn -0.1393 0.5724 0.8080
vn -0.8457 -0.0189 -0.5332
vn 0.4596 0.5258 0.7158
vn -0.2829 0.0436 -0.9582
vn -0.1301 -0.2130 0.9684
vn -0.0256 0.0157 -0.9995
vn 0.2733 -0.7253 0.6319
vn -0.0748 0.4390 0.8954
vn 0.3786 0.3437 0.8594
vn -0.2118 0.0696 -0.9748
s off
f 12//1 5//1 8//1
f 13//2 2//2 1//2
f 4//3 1//3 3//3
f 11//4 6//4 12//4
f 6//5 11//5 13//5
f 13//6 4//6 6//6
f 5//7 4//7 3//7
f 9//8 7//8 10//8
f 1//9 2//9 3//9
f 6//10 4//10 5//10
f 11//11 8//11 7//11
f 9//12 10//12 2//12
f 8//13 10//13 7//13
f 11//14 12//14 8//14
f 10//15 3//15 2//15
f 13//16 7//16 9//16
f 12//17 6//17 5//17
f 13//18 9//18 2//18
f 13//19 1//19 4//19
f 8//20 5//20 10//20
f 10//21 5//21 3//21
f 13//22 11//22 7//22
