# Blender v2.79 (sub 0) OBJ File: ''
# www.blender.org
mtllib hrp2_COM_constraints_in_RF_effector_frame_REDUCED.mtl
o foo.000_foo.001
v -0.153951 0.255618 0.553467
v -0.044942 -0.003901 0.606689
v -0.215187 0.613909 0.300059
v 0.079829 0.163865 0.587590
v 0.341034 0.081221 0.520543
v 0.257743 0.284187 0.499712
v -0.319260 0.224750 0.503677
v 0.056900 0.335274 0.532251
v 0.475328 0.443365 0.302048
v -0.645475 -0.009988 0.299978
v 0.532470 -0.003379 0.302202
v 0.241920 -0.007852 0.550602
v -0.570543 0.300646 0.300039
v -0.254403 -0.005235 0.562349
vn 0.2720 0.5808 0.7672
vn -0.0002 0.0002 -1.0000
vn 0.6870 0.1713 0.7062
vn -0.5772 0.0986 0.8106
vn -0.0770 0.1692 0.9826
vn -0.0193 0.3048 0.9522
vn 0.5913 -0.4272 0.6840
vn 0.1914 -0.0307 0.9810
vn 0.1775 0.7265 0.6638
vn -0.1283 0.5580 0.8199
vn 0.0056 -0.9999 -0.0114
vn -0.4458 0.5057 0.7386
vn -0.2520 0.1297 0.9590
vn -0.0041 -0.9988 0.0494
vn 0.0022 -0.0008 -1.0000
vn -0.0047 -0.9997 0.0251
vn 0.2316 0.3268 0.9163
vn -0.3340 0.5056 0.7955
vn 0.2898 0.1490 0.9454
usemtl None.001
s off
f 6//1 9//1 8//1
f 10//2 13//2 3//2
f 6//3 5//3 11//3 9//3
f 7//4 13//4 10//4 14//4
f 2//5 4//5 1//5
f 4//6 8//6 1//6
f 5//7 12//7 11//7
f 4//8 2//8 12//8
f 8//9 9//9 3//9
f 1//10 8//10 3//10
f 11//11 12//11 10//11
f 13//12 7//12 3//12
f 1//13 7//13 14//13 2//13
f 2//14 14//14 12//14
f 11//15 10//15 3//15 9//15
f 12//16 14//16 10//16
f 4//17 6//17 8//17
f 7//18 1//18 3//18
f 5//19 6//19 4//19 12//19
