# Blender v2.79 (sub 0) OBJ File: ''
# www.blender.org
mtllib hrp2_COM_constraints_in_LF_effector_frame_REDUCED.mtl
o foo.027
v 0.038395 -0.290074 0.551716
v -0.149505 -0.203483 0.568595
v -0.044942 0.003901 0.606689
v -0.215187 -0.613909 0.300059
v 0.079828 -0.163866 0.587590
v 0.341034 -0.081221 0.520543
v 0.257744 -0.284187 0.499712
v -0.319260 -0.224750 0.503677
v 0.064146 -0.377686 0.504203
v 0.516027 0.006606 0.300065
v 0.515678 -0.328989 0.299747
v 0.274168 -0.551651 0.300000
v -0.645475 0.009988 0.299978
v 0.241920 0.007852 0.550602
v 0.457366 0.003112 0.396014
v -0.161147 -0.300031 0.529137
v -0.570543 -0.300646 0.300039
v -0.254403 0.005235 0.562349
vn -0.3010 -0.3295 0.8949
vn 0.8532 -0.0014 0.5216
vn -0.0802 -0.4307 0.8989
vn -0.0472 -0.1965 0.9794
vn -0.1080 -0.5739 0.8118
vn 0.1914 0.0307 0.9810
vn -0.4458 -0.5057 0.7386
vn 0.0904 -0.7103 0.6981
vn 0.0029 1.0000 -0.0018
vn -0.3668 -0.5064 0.7804
vn 0.0000 -0.0012 -1.0000
vn -0.5772 -0.0986 0.8106
vn 0.2205 -0.4141 0.8831
vn -0.0003 -0.0004 -1.0000
vn 0.2259 -0.3343 0.9150
vn -0.2701 -0.1071 0.9569
vn 0.5498 0.3569 0.7553
vn -0.0047 0.9997 0.0251
vn 0.6545 -0.1907 0.7316
vn 0.0851 0.9925 0.0882
vn -0.0041 0.9988 0.0494
vn 0.4703 -0.5093 0.7207
vn 0.2891 -0.5613 0.7755
vn 0.2898 -0.1490 0.9454
vn -0.0001 0.0004 -1.0000
usemtl None.030
s off
f 16//1 2//1 8//1
f 15//2 11//2 10//2
f 9//3 1//3 2//3 16//3
f 5//4 3//4 2//4 1//4
f 9//5 16//5 4//5
f 3//6 5//6 14//6
f 4//7 8//7 17//7
f 12//8 9//8 4//8
f 14//9 10//9 13//9
f 4//10 16//10 8//10
f 12//11 4//11 11//11
f 8//12 18//12 13//12 17//12
f 1//13 9//13 7//13
f 11//14 4//14 17//14
f 1//15 7//15 5//15
f 2//16 3//16 18//16 8//16
f 6//17 15//17 14//17
f 18//18 14//18 13//18
f 6//19 7//19 11//19 15//19
f 15//20 10//20 14//20
f 3//21 14//21 18//21
f 7//22 12//22 11//22
f 9//23 12//23 7//23
f 6//24 14//24 5//24 7//24
f 11//25 17//25 13//25 10//25
