# Blender v2.79 (sub 0) OBJ File: ''
# www.blender.org
mtllib hrp2_RF_constraints_in_LF_quasi_flat_REDUCED.mtl
o foo.003
v 0.289139 -0.166685 -0.150686
v -0.030917 -0.499853 -0.160519
v -0.299581 -0.180950 -0.158220
v -0.299640 -0.140275 0.152504
v 0.299235 -0.166577 0.154751
v -0.290924 -0.491739 0.047988
v -0.286598 -0.475018 0.155675
v 0.294880 -0.492564 -0.134272
v 0.274790 -0.419324 0.146844
v 0.178476 -0.493711 0.126348
v -0.250186 -0.465852 -0.132670
vn 0.0371 -0.0061 -0.9993
vn 0.0467 -0.3211 0.9459
vn 0.9993 -0.0320 0.0210
vn -0.1728 -0.9688 -0.1778
vn -0.1424 -0.1129 -0.9834
vn -0.0152 -0.9977 0.0661
vn -0.9995 -0.0290 0.0142
vn 0.0219 -0.9997 0.0054
vn 0.0059 -0.0082 0.9999
vn -0.9523 -0.1868 -0.2415
vn 0.5591 -0.7917 0.2462
vn 0.0107 0.9977 -0.0662
usemtl None
s off
f 8//1 2//1 3//1 1//1
f 10//2 9//2 7//2
f 8//3 1//3 5//3 9//3
f 11//4 2//4 6//4
f 2//5 11//5 3//5
f 10//6 7//6 6//6 2//6
f 6//7 7//7 4//7 3//7
f 8//8 10//8 2//8
f 5//9 4//9 7//9 9//9
f 11//10 6//10 3//10
f 8//11 9//11 10//11
f 5//12 1//12 3//12 4//12
